<svg width="742" height="586" version="1.1" xmlns="http://www.w3.org/2000/svg" desc="Created with imagetracer.js version 1.2.6" ><path fill="rgb(33,23,6)" stroke="rgb(33,23,6)" stroke-width="1" opacity="1" d="M 363.5 126 L 379.5 126 L 387.5 128 Q 399.2 132.8 407 141.5 Q 414.5 149.5 418 161.5 Q 420.7 169.8 419 182.5 L 417 189.5 L 419 188.5 Q 427.4 171.9 440.5 160 Q 450.9 150.9 464.5 145 L 475.5 141 L 490.5 138 L 638 138 L 630 159.5 L 618.5 174 L 603.5 183 L 593.5 185 L 589 188.5 L 583.5 195 L 570.5 203 L 560.5 206 L 554.5 206 L 549 210.5 L 547.5 213 Q 540.5 220 530.5 224 L 515 227 L 507.5 236 L 494.5 244 L 484.5 246 L 484.5 245 L 488.5 245 L 496.5 242 L 511 231.5 L 515.5 226 Q 539.8 223.3 551 207.5 Q 550.3 205.3 552.5 206 L 553.5 205 L 564.5 204 L 577.5 198 L 590 186.5 Q 589.3 184.3 591.5 185 L 609.5 179 L 624 166.5 L 630 157.5 L 637 139 L 492.5 139 Q 491 141.5 485.5 140 Q 450.4 146.9 432 170.5 L 415.5 194 Q 413.3 194.8 414 192.5 Q 420 183.5 418 166.5 Q 413.9 147.1 400.5 137 L 386.5 129 L 377.5 127 L 364.5 127 Q 345.3 130.8 335 143.5 L 326 159.5 L 324 177.5 L 328 193.5 L 323 189.5 Q 314.4 173.1 301.5 161 Q 291.4 152.1 278.5 146 L 267.5 142 L 252.5 139 L 106 139 L 113 158.5 L 124.5 173 L 139.5 182 L 150.5 184 L 155 188.5 L 159.5 194 Q 169.8 204.2 189.5 205 L 195 210.5 Q 194.3 212.8 196.5 212 Q 202.5 219.5 212.5 223 L 219.5 225 L 224.5 225 L 229 227.5 L 236.5 236 Q 244.8 243.2 258 245.5 L 254.5 246 L 245.5 243 L 230 231.5 L 226.5 227 Q 200.2 223.8 188.5 206 L 181.5 206 L 167.5 201 L 152 187.5 Q 152.8 185.3 150.5 186 Q 128 182 117 166.5 Q 108 154.6 105 138 L 254.5 138 Q 291.7 144.8 311 169.5 L 324.5 189 L 325 185.5 Q 321.5 179 323 167.5 Q 327.3 145.8 342.5 135 Q 350.7 128.3 363.5 126 Z " /><path fill="rgb(33,23,6)" stroke="rgb(33,23,6)" stroke-width="1" opacity="1" d="M 362.5 133 Q 375.2 131.3 383.5 134 Q 396.4 138.6 404 148.5 Q 409.7 155.3 412 165.5 L 412 181.5 L 406 197.5 L 394 214.5 L 395.5 214 Q 409.8 207.8 420 197.5 L 433 178.5 L 446.5 164 L 467.5 151 L 490.5 145 L 628 145 Q 624.6 161.3 612.5 170 Q 603.7 177.7 588.5 179 L 585 182.5 L 578.5 190 Q 568.3 199.3 549.5 200 L 546 203.5 L 539.5 211 L 529.5 217 L 518.5 220 L 512.5 220 L 511 221.5 L 501.5 232 L 484.5 240 L 472.5 241 Q 452.2 264.2 421.5 277 L 406.5 282 L 393.5 284 L 393.5 283 L 402.5 282 L 416.5 278 L 439.5 267 Q 458 256 471.5 240 L 484.5 239 L 490.5 237 Q 502 232.5 509 223.5 L 512.5 219 Q 536.6 217.1 547 201.5 L 548.5 199 Q 551.7 196.7 558.5 198 L 568.5 195 Q 579.4 189.9 586 180.5 L 587.5 178 Q 607.1 176.1 617 164.5 Q 623.9 157.4 627 146.5 L 493.5 146 L 492.5 147 L 480.5 148 L 468.5 152 Q 452.3 158.8 441 170.5 L 428 189.5 L 414.5 204 L 395.5 216 L 392 216 L 403 200.5 L 409 188.5 L 411 180.5 L 411 166.5 Q 407 149.5 394.5 141 Q 388.1 135.9 378.5 134 L 363.5 134 Q 346.5 138 338 150.5 Q 330.1 160.1 331 178.5 L 335 192.5 L 348 211.5 L 349 216 Q 331.7 209.4 320 196.5 L 305 174.5 L 295.5 165 L 277.5 153 L 267.5 149 L 253.5 146 L 114 145.5 L 254.5 145 Q 285.6 150.9 303 170.5 L 319 193.5 L 328.5 203 L 346.5 214 L 347 212.5 Q 338.3 203.2 333 190.5 L 330 179.5 L 330 168.5 Q 333.1 151.1 344.5 142 Q 351.5 135.5 362.5 133 Z " /><path fill="rgb(33,23,6)" stroke="rgb(33,23,6)" stroke-width="1" opacity="1" d="M 363.5 137 Q 390.2 135.3 400 150.5 Q 409.4 159.6 408 179.5 L 406 187.5 Q 400.4 200.9 391 210.5 L 388 216.5 L 388 220 Q 411.1 214.4 425 198.5 L 440 176.5 L 448.5 168 Q 463.5 154.5 487.5 150 L 495.5 150 L 496.5 149 L 620 149 L 621 151.5 L 618.5 150 L 511.5 150 L 510.5 151 L 488.5 151 Q 455.8 157.3 439 179.5 Q 431.1 196.1 417.5 207 L 399.5 218 L 390.5 221 L 386.5 221 L 387 219.5 L 389 211.5 Q 398.1 202.1 404 189.5 L 407 178.5 L 407 168.5 L 401 153.5 L 396 147 L 381.5 139 Q 374.8 136.7 364.5 138 Q 349.9 141.9 342 152.5 L 338 159.5 L 335 173.5 Q 337.8 175.3 336 181.5 L 339 190.5 L 354 212.5 L 356 221 L 345.5 219 L 333.5 213 L 316 198.5 L 304 180.5 L 294.5 170 Q 279.2 155.3 253.5 151 L 231.5 151 L 230.5 150 L 124.5 150 L 123 153.5 L 132.5 165 L 144.5 172 L 157.5 174 L 160 176.5 L 167.5 186 L 177.5 192 L 184.5 194 L 195.5 194 L 198 196.5 L 206.5 207 L 214.5 212 L 227.5 215 L 233.5 215 L 235 216.5 L 236 219.5 L 244.5 228 Q 253.7 236.3 272.5 235 L 278 240.5 L 283.5 247 Q 302.7 265.3 331 274.5 L 328.5 275 Q 293.4 262.1 271.5 236 L 260.5 236 L 250.5 233 L 237 222.5 L 232.5 216 L 225.5 216 L 216.5 214 L 201 203.5 L 195.5 196 L 179.5 194 Q 169.3 190.7 163 183.5 L 158 175 Q 134.8 173.9 125 158.5 Q 121.4 156.6 122 150.5 L 123.5 149 L 245.5 149 L 246.5 150 L 260.5 151 L 272.5 155 Q 291.3 162.7 303 177.5 Q 312.1 194.9 326.5 207 L 343.5 217 L 355 220 L 352 211.5 Q 342.6 201.9 337 188.5 L 334 177.5 L 334 169.5 Q 337 153.5 347.5 145 L 363.5 137 Z " /><path fill="rgb(33,23,6)" stroke="rgb(33,23,6)" stroke-width="1" opacity="1" d="M 367.5 141 L 374.5 141 L 382.5 143 Q 392.2 147.3 398 155.5 Q 404.6 162.9 404 177.5 L 400.5 188 L 398 174.5 Q 394.8 166.8 388.5 162 L 378.5 157 L 369.5 156 L 361.5 158 L 350 165.5 Q 342.2 172.7 342.5 188 Q 337.3 181.3 339 167.5 Q 342.3 154.8 351.5 148 Q 357.9 142.9 367.5 141 Z M 372 142 Q 370 145 364 143 L 354 148 Q 344 155 340 168 Q 338 178 342 183 Q 342 173 347 168 L 355 160 L 369 155 L 375 155 L 382 157 L 393 164 L 400 177 L 400 181 L 402 182 L 402 167 L 395 154 Q 390 147 382 144 L 372 142 Z " /><path fill="rgb(33,23,6)" stroke="rgb(33,23,6)" stroke-width="1" opacity="1" d="M 115.5 147 Q 119.7 161.3 130.5 169 Q 139.2 176.8 154.5 178 L 158 181.5 L 165.5 190 L 176.5 196 Q 181.9 199.1 191.5 198 L 196 201.5 L 204.5 211 L 213.5 216 L 224.5 219 L 230.5 219 L 232 220.5 L 242.5 232 Q 252.5 240 270.5 240 Q 291.5 264 323.5 277 L 344.5 283 L 356.5 284 L 357.5 285 L 385.5 285 Q 386.7 282.8 391.5 284 L 391.5 285 Q 386.7 283.8 385.5 286 L 357.5 286 L 332.5 281 L 316.5 275 Q 288.9 262.6 270.5 241 L 257.5 240 L 251.5 238 Q 240 233.5 233 224.5 L 229.5 220 Q 205.4 218.1 195 202.5 L 193.5 200 L 182.5 199 L 175.5 197 L 161 188 L 154.5 179 Q 133.7 177.3 124 164.5 Q 116.7 157.2 115.5 147 Z " /><path fill="rgb(33,23,6)" stroke="rgb(33,23,6)" stroke-width="1" opacity="1" d="M 128 153 L 241 154 L 242 170 L 149.5 170 Q 135 166.5 128 155.5 L 128 153 Z M 130 154 L 130 157 Q 137 166 151 169 L 241 169 L 240 155 L 142 155 L 141 154 L 130 154 Z " /><path fill="rgb(33,23,6)" stroke="rgb(33,23,6)" stroke-width="1" opacity="1" d="M 549.5 153 L 613.5 153 L 615 154.5 L 607.5 163 Q 601.8 168.3 592.5 170 L 500 170 Q 502.1 165.2 501 155.5 L 502.5 154 L 548.5 154 L 549.5 153 Z M 602 154 L 601 155 L 503 155 Q 501 159 502 168 L 502 169 L 592 169 Q 606 166 613 156 L 613 154 L 602 154 Z " /><path fill="rgb(33,23,6)" stroke="rgb(33,23,6)" stroke-width="1" opacity="1" d="M 619.5 153 L 620 154.5 L 610.5 166 L 600.5 172 L 585.5 175 L 584 176.5 L 575.5 187 L 565.5 193 L 558.5 195 L 546.5 196 L 545 197.5 L 536.5 208 Q 526.7 216.5 509 216 Q 506.3 224.2 498.5 229 L 486.5 235 L 471.5 236 L 469 237 L 469 238.5 L 460.5 247 Q 437.5 269 401.5 278 L 401.5 277 L 416.5 273 L 437.5 263 Q 456.5 251.5 470.5 235 Q 494.3 235.8 504 222.5 L 509.5 215 Q 533.7 214.7 543 199.5 L 546.5 194 L 557.5 194 L 567.5 191 L 582 178.5 L 584 174 L 594.5 173 L 602.5 170 L 617 157.5 L 619.5 153 Z " /><path fill="rgb(33,23,6)" stroke="rgb(33,23,6)" stroke-width="1" opacity="1" d="M 245.5 154 L 253.5 154 L 271.5 159 Q 289 166.5 300 180.5 Q 309.3 198.7 324.5 211 Q 337.2 222.3 358.5 225 L 360 222.5 L 359 218 L 370 226.5 L 370 276.5 L 369.5 277 L 355.5 277 Q 302.9 267.6 275 233.5 Q 259.7 216.3 251 192.5 Q 245.1 176.4 244 155.5 L 245.5 154 Z M 245 155 L 246 159 L 248 156 L 245 155 Z M 250 156 L 248 158 L 249 172 L 255 194 Q 263 214 276 230 Q 290 246 309 257 Q 323 267 344 270 L 344 271 Q 325 268 312 260 L 287 242 L 279 234 L 273 229 L 278 236 Q 305 267 356 276 L 368 276 L 368 276 L 368 227 L 362 221 L 361 225 Q 359 227 354 227 L 366 229 L 367 230 L 367 274 L 365 275 L 363 275 L 365 274 L 366 273 L 366 231 L 365 229 L 354 228 L 344 225 Q 329 219 318 209 L 307 198 L 295 180 L 279 166 L 271 162 L 250 156 Z M 260 157 L 260 158 L 262 158 L 260 157 Z M 247 160 L 246 168 L 250 186 L 251 186 L 247 160 Z M 292 174 L 296 179 L 296 178 L 292 174 Z M 302 185 L 301 187 L 303 188 L 302 185 Z M 252 186 L 251 190 L 256 202 L 257 202 L 252 186 Z M 304 188 L 303 190 L 305 191 L 304 188 Z M 259 204 L 258 207 L 260 208 L 259 204 Z M 262 210 L 262 214 L 264 215 L 262 210 Z M 265 215 L 265 219 L 267 220 L 265 215 Z M 268 220 L 267 222 L 270 224 L 268 220 Z M 271 224 L 270 226 L 272 227 L 271 224 Z M 351 225 L 351 226 L 353 226 L 351 225 Z " /><path fill="rgb(33,23,6)" stroke="rgb(33,23,6)" stroke-width="1" opacity="1" d="M 489.5 154 L 498 154 L 498 164.5 L 494 184.5 L 484 209.5 Q 472.8 229.8 456.5 245 Q 436.9 263.4 407.5 272 L 407.5 271 Q 444.9 259.4 467 232.5 L 471 226.5 L 466 230.5 L 453.5 244 L 434.5 258 L 412.5 268 L 403.5 270 L 403.5 269 L 412.5 267 L 430.5 259 Q 446.6 250.1 459 237.5 Q 475.2 221.7 485 199.5 L 493 174.5 L 495 157.5 L 492.5 156 L 467.5 164 Q 453.4 171.4 444 183.5 Q 435.9 199.9 422.5 211 L 405.5 222 L 395.5 226 L 383.5 229 L 378.5 229 L 376 231.5 L 376 272.5 L 377.5 274 L 380 274.5 L 377.5 275 L 375 272.5 L 375 230.5 L 378.5 228 L 388 226.5 Q 383.4 227.1 382 224.5 L 381.5 220 L 374 226.5 L 374 275.5 L 374.5 276 L 386.5 276 L 386.5 277 L 373.5 277 L 373 276.5 L 373 225 L 382.5 218 L 383 225 L 388.5 225 L 398.5 222 L 412.5 215 L 429 200.5 L 443 179.5 L 451.5 171 Q 466.2 158.2 489.5 154 Z M 496 155 Q 497 157 496 163 L 497 163 L 497 156 L 496 155 Z M 481 157 L 481 158 L 483 158 L 481 157 Z M 478 158 L 478 159 L 480 159 L 478 158 Z M 472 160 L 472 161 L 474 161 L 472 160 Z M 496 164 L 494 171 L 495 176 L 496 171 L 496 164 Z M 462 165 L 461 167 L 463 166 L 462 165 Z M 459 167 L 458 169 L 460 168 L 459 167 Z M 455 170 L 454 172 L 456 171 L 455 170 Z M 494 176 L 493 180 L 494 180 L 494 176 Z M 446 179 L 442 184 L 446 181 L 446 179 Z M 493 180 L 492 184 L 493 184 L 493 180 Z M 442 184 L 440 187 L 442 186 L 442 184 Z M 492 184 L 484 203 L 485 205 L 492 188 L 492 184 Z M 437 192 L 435 195 L 437 194 L 437 192 Z M 430 201 L 425 207 L 430 203 L 430 201 Z M 483 207 L 479 213 L 480 214 L 483 209 L 483 207 Z M 479 214 L 476 218 L 477 219 L 479 216 L 479 214 Z M 476 219 L 471 225 L 472 226 L 476 221 L 476 219 Z M 390 225 L 390 226 L 392 226 L 390 225 Z " /><path fill="rgb(33,23,6)" stroke="rgb(33,23,6)" stroke-width="1" opacity="1" d="M 252.5 160 L 264.5 163 L 277.5 169 L 295 184.5 Q 303.9 201.1 317.5 213 Q 327.4 221.6 340.5 227 L 352.5 231 L 361.5 232 L 363 233.5 L 363 269.5 Q 362.8 270.8 356.5 270 L 356.5 269 Q 361.9 269.6 362 268.5 L 362 234.5 L 360.5 233 L 342.5 229 L 331.5 224 Q 318.5 217 309 206.5 L 287.5 178 Q 278.5 170 266.5 165 L 252 162 L 257 186.5 L 265 205.5 Q 276.2 226.3 293.5 241 Q 307.5 253 325.5 261 Q 338.7 266.3 355 268.5 L 349.5 269 Q 308 260 284 233.5 Q 269.8 219.2 261 199.5 L 254 179.5 L 251 161.5 L 252.5 160 Z " /><path fill="rgb(33,23,6)" stroke="rgb(33,23,6)" stroke-width="1" opacity="1" d="M 489.5 160 Q 492.5 159.5 491 166.5 Q 482.3 214.3 451.5 240 Q 438.5 252 421.5 260 L 397.5 268 L 380.5 270 L 379 268.5 L 379 234.5 L 380 232 Q 418.4 226.7 437 200.5 Q 444.5 186.5 455.5 176 Q 468.7 164.2 489.5 160 Z M 487 162 Q 470 166 459 175 L 448 186 L 436 204 Q 418 226 386 233 Q 381 232 381 234 L 381 269 L 398 267 L 417 261 Q 433 254 447 243 Q 481 217 490 166 Q 492 160 487 162 Z " /><path fill="rgb(33,23,6)" stroke="rgb(33,23,6)" stroke-width="1" opacity="1" d="M 258 168 Q 268.1 168.5 274 174.5 L 272 177.5 L 273.5 178 L 277.5 176 L 287 184.5 Q 288.3 188.3 284.5 187 L 282.5 188 L 274.5 184 L 277 187.5 L 274 191.5 L 275.5 192 Q 278 187.5 286.5 189 L 295 195.5 L 294 198 L 289 201.5 L 290.5 202 L 296.5 198 L 305 209.5 Q 303.5 212.5 297.5 211 L 293.5 209 L 294 210.5 Q 294.5 215 291 215.5 L 292.5 216 Q 294.9 211.4 302.5 212 L 312 218 L 306.5 225 Q 304.2 227.7 298.5 227 L 291.5 223 L 295 227.5 L 293.5 230 Q 296.5 227 303.5 228 L 310.5 233 L 306 227.5 Q 305.3 225.3 307.5 226 Q 310.5 221 317.5 220 L 328 227.5 L 322.5 234 L 316.5 235 L 311.5 233 L 312 234.5 L 308 239.5 L 309.5 240 Q 311.7 234.7 320.5 236 L 325.5 239 L 323 235.5 L 328.5 230 L 332.5 229 L 342.5 234 L 346 234 L 345 237.5 L 346.5 238 Q 348.2 235.2 353.5 236 L 357 237 L 357 248.5 L 355.5 250 L 346.5 249 L 347 250.5 L 345.5 253 L 338.5 258 L 331.5 258 L 323 251.5 Q 326.8 244.3 337.5 244 L 345.5 249 L 341 243.5 L 344 239.5 L 342.5 239 Q 340.5 244 331.5 242 L 326.5 239 L 329 242.5 L 323.5 249 L 314.5 250 L 306 244.5 L 308 240.5 L 306.5 240 L 302.5 242 L 292 232.5 Q 292.8 230.3 290.5 231 L 287 228.5 L 282 221.5 L 284.5 220 L 290.5 223 L 289 220.5 L 291 216.5 L 289.5 216 Q 287.6 220.1 280.5 219 L 278 218 L 274 211.5 L 274 208.5 L 274.5 207 Q 270.1 208.5 271 205.5 L 267 198.5 L 269.5 197 L 272 198 L 271 195.5 L 272.5 193 L 266.5 195 L 264 192.5 L 261 183.5 L 262 181 Q 270 179.7 273.5 184 L 271 180.5 L 272 179.5 Q 272.8 177.3 270.5 178 L 265.5 180 L 261.5 179 L 259 176.5 L 258 168 Z M 261 169 L 259 171 L 260 176 Q 262 180 270 178 L 272 175 L 261 169 Z M 276 177 L 273 181 L 280 186 Q 286 187 286 185 L 276 177 Z M 263 182 L 266 194 Q 271 194 275 190 L 276 187 L 269 182 L 263 182 Z M 280 190 L 278 191 L 273 197 L 281 202 Q 288 203 291 199 L 293 196 L 287 190 L 280 190 Z M 273 198 L 276 202 L 277 202 L 273 198 Z M 269 199 L 273 206 L 276 204 L 269 199 Z M 296 199 L 293 201 L 290 205 L 298 210 Q 303 211 304 209 L 298 201 L 296 199 Z M 277 202 L 277 205 L 276 207 L 282 204 Q 289 204 292 209 L 293 209 Q 288 207 289 202 L 287 203 Q 280 204 277 202 Z M 283 205 L 279 206 L 275 210 L 281 218 Q 290 218 293 212 Q 290 206 283 205 Z M 300 213 Q 293 215 290 220 L 299 226 L 305 225 L 311 220 L 305 214 L 300 213 Z M 317 221 L 311 224 Q 308 225 308 229 L 317 234 L 324 232 L 327 227 L 317 221 Z M 285 222 Q 285 227 291 230 L 293 226 L 288 222 L 285 222 Z M 298 229 L 296 230 L 294 234 L 303 241 L 306 240 L 310 235 L 303 229 L 298 229 Z M 331 230 L 327 233 L 325 236 L 332 241 L 341 240 L 344 235 L 331 230 Z M 316 237 L 307 244 L 315 249 Q 323 251 326 246 L 328 242 L 320 237 L 316 237 Z M 350 237 L 344 242 Q 341 241 342 244 L 350 249 L 356 249 L 356 238 L 350 237 Z M 333 245 L 328 248 L 325 252 L 332 257 L 341 256 L 345 251 L 338 245 L 333 245 Z " /><path fill="rgb(33,23,6)" stroke="rgb(33,23,6)" stroke-width="1" opacity="1" d="M 481.5 168 L 484 168 L 484 174.5 L 480.5 179 L 476.5 180 L 472.5 179 L 469 175.5 Q 467.9 172.2 470.5 173 L 481.5 168 Z M 482 169 L 472 174 Q 469 173 470 176 Q 473 179 481 178 L 483 174 Q 485 168 482 169 Z " /><path fill="rgb(33,23,6)" stroke="rgb(33,23,6)" stroke-width="1" opacity="1" d="M 349 172 Q 351.7 170.9 351 173.5 Q 348.5 175 350 180.5 Q 355.2 197.8 368.5 207 L 372.5 208 L 383 198.5 L 391 185.5 L 392.5 172 Q 398.1 177.4 396 190.5 Q 390.1 207.6 377.5 218 L 372.5 222 L 369.5 222 L 351 201.5 L 346 188.5 L 346 180.5 L 349 172 Z M 349 177 L 347 182 L 347 188 L 350 198 L 359 211 Q 363 218 373 221 Q 388 210 395 190 Q 397 181 394 177 L 392 187 L 386 197 L 373 209 Q 368 210 367 207 L 353 192 Q 349 186 349 177 Z " /><path fill="rgb(33,23,6)" stroke="rgb(33,23,6)" stroke-width="1" opacity="1" d="M 163 174 L 242.5 174 L 243 175.5 L 247 191 L 185.5 191 Q 170.1 187.9 163 176.5 L 163 174 Z M 165 175 L 165 178 Q 172 188 187 190 L 246 190 L 242 177 L 242 175 L 165 175 Z " /><path fill="rgb(33,23,6)" stroke="rgb(33,23,6)" stroke-width="1" opacity="1" d="M 499 174 L 579.5 174 L 580 175.5 L 572.5 184 Q 566.1 189.1 556.5 191 L 496 191 L 499 174 Z M 500 175 L 497 190 L 556 190 Q 572 187 579 176 L 500 175 Z " /><path fill="rgb(33,23,6)" stroke="rgb(33,23,6)" stroke-width="1" opacity="1" d="M 465.5 176 Q 470.5 175.5 471 179.5 L 466 185.5 L 467.5 186 Q 469.6 179.6 479.5 181 L 481 184.5 L 476.5 195 L 473.5 195 L 467.5 191 L 471 195.5 L 468 199.5 L 469.5 200 Q 470.8 196.2 475 197 L 475 199.5 L 470.5 207 L 466.5 206 L 469 209.5 L 462.5 219 Q 453 219.5 449.5 214 L 454 219.5 L 448.5 225 Q 446.2 227.7 440.5 227 L 434.5 224 L 436 226.5 L 435 229.5 L 436.5 230 Q 438.5 227 444.5 228 L 448 229 Q 446.5 225.3 449.5 226 Q 452.9 220.6 460 220 Q 459.4 227.9 452.5 231 L 448.5 229 L 450 231.5 L 450 233.5 L 445.5 238 L 440.5 242 L 438.5 242 L 431 237 Q 430.2 232.7 434 231.5 L 432.5 231 Q 430.3 235.3 423.5 235 L 418.5 233 L 419 234.5 L 414.5 240 Q 411.6 243.6 403.5 242 L 396 235.5 L 409.5 229 L 412.5 229 L 416.5 232 L 414 228.5 L 415.5 226 L 426.5 220 L 433.5 224 L 431 220.5 Q 430.5 216.5 433.5 216 Q 436.5 212 443.5 212 L 448.5 214 L 448 212.5 Q 449.1 209.2 446.5 210 Q 445 212.5 439.5 211 L 438 207.5 L 445.5 198 L 450.5 200 L 448 196.5 Q 446.9 193.2 449.5 194 L 455.5 189 L 463.5 189 L 466.5 191 L 465 188.5 L 466 187.5 Q 466.8 185.3 464.5 186 L 458.5 188 L 455 185.5 L 459.5 180 L 465.5 176 Z M 466 177 L 463 179 L 457 186 L 463 186 L 470 181 L 466 177 Z M 475 182 L 471 184 L 467 189 Q 470 193 476 194 L 480 184 Q 479 181 475 182 Z M 457 190 L 449 196 L 457 202 L 463 202 L 470 196 L 463 190 L 457 190 Z M 447 199 L 440 208 Q 438 209 441 210 Q 446 211 449 208 L 452 204 L 447 199 Z M 472 199 L 467 205 L 470 206 L 474 200 L 472 199 Z M 452 200 L 454 205 L 454 206 L 458 204 Q 463 203 465 206 Q 467 207 466 205 L 465 204 L 468 200 L 463 203 Q 454 204 452 200 Z M 459 205 L 449 212 L 458 218 L 464 217 L 467 212 L 467 208 L 459 205 Z M 452 206 L 449 210 L 453 207 L 452 206 Z M 442 213 Q 435 215 432 220 L 441 226 Q 448 226 451 222 L 452 219 L 447 214 L 442 213 Z M 426 221 L 418 226 L 416 229 L 424 234 Q 432 233 435 228 Q 432 223 426 221 Z M 456 222 L 453 224 Q 446 227 452 230 L 454 229 L 459 223 L 456 222 Z M 440 229 L 434 234 Q 431 233 432 236 L 439 241 L 443 239 L 449 231 Q 446 228 440 229 Z M 411 230 L 401 235 Q 397 234 398 237 L 404 241 L 411 241 L 418 236 L 411 230 Z " /><path fill="rgb(33,23,6)" stroke="rgb(33,23,6)" stroke-width="1" opacity="1" d="M 201 194 L 247.5 194 L 249 195.5 L 256 210.5 L 254.5 212 L 230.5 212 Q 228.8 209.3 222.5 211 L 213.5 208 L 201 196.5 L 201 194 Z M 203 196 L 203 198 Q 210 207 223 210 L 254 210 L 249 198 L 248 196 L 203 196 Z " /><path fill="rgb(33,23,6)" stroke="rgb(33,23,6)" stroke-width="1" opacity="1" d="M 494 194 L 540.5 194 L 542 195.5 L 534.5 204 L 520.5 211 Q 514.3 209.3 512.5 212 L 488.5 212 L 487 209.5 L 494 194 Z M 494 196 L 489 209 L 489 210 L 520 210 L 524 209 Q 534 205 540 197 L 494 196 Z " /><path fill="rgb(33,23,6)" stroke="rgb(33,23,6)" stroke-width="1" opacity="1" d="M 238 215 L 257.5 215 L 260 217.5 L 269 232 Q 248.8 232.1 240 219.5 L 238 215 Z M 240 216 Q 246 230 267 231 L 258 218 L 258 216 L 240 216 Z " /><path fill="rgb(33,23,6)" stroke="rgb(33,23,6)" stroke-width="1" opacity="1" d="M 484.5 215 L 505 215.5 L 495.5 226 Q 487.4 232.2 474 232 L 484.5 215 Z M 486 216 L 477 229 L 476 231 Q 489 231 497 224 L 503 217 L 486 216 Z " /><path fill="rgb(33,23,6)" stroke="rgb(33,23,6)" stroke-width="1" opacity="1" d="M 389.5 236 L 395.5 237 L 402 242 L 399 246.5 L 400.5 247 Q 402.7 242.7 410.5 244 L 419 250.5 L 415.5 255 Q 412.3 259.3 403.5 258 L 400.5 256 L 402 258.5 Q 402.8 260.8 400.5 260 Q 397 263.5 389.5 263 L 389.5 262 L 400 260 L 396.5 255 Q 394.2 251.8 387.5 253 Q 384.3 254.8 386 261.5 L 387.5 264 L 385 262.5 L 385 253.5 L 386.5 252 Q 396.4 250.6 399.5 256 L 396 251.5 L 399 247.5 L 397.5 247 Q 395 251.5 386.5 250 L 385 248.5 L 385 238.5 L 389.5 236 Z M 390 237 L 386 238 L 386 248 L 388 249 L 396 248 L 400 243 Q 397 238 390 237 Z M 405 245 L 399 250 Q 396 249 397 252 L 405 257 L 411 257 L 418 252 L 411 245 L 405 245 Z " /><path fill="rgb(33,23,6)" stroke="rgb(33,23,6)" stroke-width="1" opacity="1" d="M 422.5 236 L 427.5 236 L 437 242 L 434.5 246 L 427.5 250 L 421.5 250 L 413 243.5 L 414.5 241 L 422.5 236 Z M 423 237 L 418 240 L 415 244 L 422 249 L 428 249 L 434 245 Q 436 246 435 243 L 428 237 L 423 237 Z " /><path fill="rgb(33,23,6)" stroke="rgb(33,23,6)" stroke-width="1" opacity="1" d="M 259.5 246 L 268.5 247 L 277 255.5 L 274 261 L 283.5 261 L 289 265.5 L 287.5 268 Q 274.5 275 265 285.5 L 265.5 287 L 268.5 286 L 268.5 287 L 264.5 288 L 263 286.5 L 272.5 277 L 288 266.5 L 282.5 262 L 273.5 262 L 272 260.5 L 276 256.5 L 266.5 247 L 259.5 247 L 259.5 246 Z " /><path fill="rgb(33,23,6)" stroke="rgb(33,23,6)" stroke-width="1" opacity="1" d="M 475.5 246 L 483 246.5 Q 474.8 245.8 472 250.5 L 470.5 253 L 467 255.5 L 470 260.5 L 468.5 262 L 459.5 262 L 455 265.5 L 456.5 268 Q 469.3 275.3 479 285.5 Q 480.1 288.8 477.5 288 Q 457.8 282.7 442.5 273 Q 439.8 274.3 442 275.5 L 452 289.5 L 452 293 L 443.5 291 L 427.5 282 L 433 288.5 Q 444.9 302.4 452 320 L 444.5 317 L 425 298.5 L 419.5 292 L 419 294.5 L 422 300.5 L 425 314.5 L 422.5 316 L 408 302.5 L 405.5 299 L 405 300.5 L 412 320.5 L 415 342 L 410 338.5 Q 399.3 323.7 393.5 304 L 393 315.5 L 391 328 Q 387.2 328.8 386 325.5 Q 380.2 316.8 377.5 305 L 377 309.5 L 377 311.5 L 377 326.5 L 373 349 Q 369.3 350.5 370 347.5 L 366 333.5 L 364.5 305 Q 361.4 318.6 355 328 L 351 326.5 L 350 322.5 L 349.5 302 Q 342.8 325.3 329.5 342 L 328 341.5 L 328 331.5 Q 331.2 313.2 338 298.5 L 335 300.5 L 328 310 L 320.5 316 L 318 316 Q 318.4 301.6 324 291.5 L 322 292.5 L 301.5 314 L 291 321 L 291 317.5 L 296 307.5 L 314 283 L 298.5 291 L 291.5 293 L 290 290.5 L 301 274 Q 289.5 276.7 280.5 283 L 270.5 286 L 270.5 285 Q 285.9 280.9 297.5 273 L 301.5 273 Q 305.2 275.2 300 277.5 L 293 287.5 L 292 291.5 L 293.5 291 L 298.5 290 L 313.5 281 L 317 281 L 304 297.5 L 292 318.5 L 293.5 319 L 320 294.5 L 327.5 285 L 328 287.5 Q 320.1 298.4 319 315 L 320.5 315 L 333 302.5 L 341.5 290 L 343 290.5 L 340 295.5 L 333 315.5 L 330 327.5 L 329 339.5 L 332 337.5 L 341 321.5 L 352.5 292 L 352 293.5 Q 353.5 299 351 300.5 L 351 320.5 L 353.5 327 L 361 313.5 L 365 297.5 L 366.5 296 L 367 300.5 L 366 301.5 L 366 320.5 L 367 321.5 L 367 331.5 L 369 342.5 L 371.5 347 L 373 344.5 L 375 326.5 L 376 325.5 L 376.5 294 Q 379.5 313.8 388 327 Q 391.3 328.3 390 323.5 L 391 322.5 L 392 306.5 L 391 305.5 L 390 292.5 L 391 292.5 Q 398.2 320.1 412 340 Q 415 341.3 414 337.5 L 408 310.5 L 400 289.5 L 402 290.5 Q 407.9 303.6 418.5 312 L 422.5 315 Q 425.3 313.8 423 312.5 Q 421.4 296.6 414 286.5 Q 416 283 418 287.5 L 436.5 309 L 450.5 319 L 450 317.5 L 445 307.5 L 426 281 L 428.5 281 L 443.5 290 L 451 292 L 449 286.5 L 440 274.5 L 443.5 272 Q 457.9 282.1 477.5 287 L 478 285 L 453 267 Q 451.9 264.3 454.5 265 Q 458 258.8 469 261 Q 470.1 258.3 467.5 259 L 465 256.5 L 475.5 246 Z " /><path fill="rgb(33,23,6)" stroke="rgb(33,23,6)" stroke-width="1" opacity="1" d="M 349.5 252 Q 355.5 250.5 357 253.5 L 357 263.5 L 354.5 264 L 349 262.5 L 353.5 262 L 356 263 L 356 253 L 349.5 253 L 342 258.5 Q 343.3 261.7 348 261.5 L 344.5 262 L 341 259.5 L 345.5 254 L 349.5 252 Z " /><path fill="rgb(33,23,6)" stroke="rgb(33,23,6)" stroke-width="1" opacity="1" d="M 398.5 270 L 402 270.5 L 394.5 272 L 394.5 271 L 398.5 270 Z " /><path fill="rgb(33,23,6)" stroke="rgb(33,23,6)" stroke-width="1" opacity="1" d="M 345.5 271 L 355 272.5 L 349.5 273 L 345.5 272 L 345.5 271 Z " /><path fill="rgb(33,23,6)" stroke="rgb(33,23,6)" stroke-width="1" opacity="1" d="M 388.5 272 L 393 272.5 L 388.5 273 L 388.5 272 Z " /><path fill="rgb(33,23,6)" stroke="rgb(33,23,6)" stroke-width="1" opacity="1" d="M 402.5 272 L 406 272.5 L 393.5 276 L 388.5 276 L 388.5 275 L 393.5 275 L 402.5 272 Z " /><path fill="rgb(33,23,6)" stroke="rgb(33,23,6)" stroke-width="1" opacity="1" d="M 356.5 273 L 361 273.5 L 356.5 274 L 356.5 273 Z " /><path fill="rgb(33,23,6)" stroke="rgb(33,23,6)" stroke-width="1" opacity="1" d="M 381.5 273 L 387 273.5 L 381.5 274 L 381.5 273 Z " /><path fill="rgb(33,23,6)" stroke="rgb(33,23,6)" stroke-width="1" opacity="1" d="M 332.5 275 L 347 278.5 L 342.5 279 L 332.5 276 L 332.5 275 Z " /><path fill="rgb(33,23,6)" stroke="rgb(33,23,6)" stroke-width="1" opacity="1" d="M 395.5 278 L 400 278.5 L 395.5 279 L 395.5 278 Z " /><path fill="rgb(33,23,6)" stroke="rgb(33,23,6)" stroke-width="1" opacity="1" d="M 348.5 279 L 353 279.5 L 348.5 280 L 348.5 279 Z " /><path fill="rgb(33,23,6)" stroke="rgb(33,23,6)" stroke-width="1" opacity="1" d="M 390.5 279 L 394 279.5 L 390.5 280 L 390.5 279 Z " /><path fill="rgb(33,23,6)" stroke="rgb(33,23,6)" stroke-width="1" opacity="1" d="M 354.5 280 L 366 280.5 L 354.5 281 L 354.5 280 Z " /><path fill="rgb(33,23,6)" stroke="rgb(33,23,6)" stroke-width="1" opacity="1" d="M 377.5 280 L 388 280.5 L 377.5 281 L 377.5 280 Z " /><path fill="rgb(33,23,6)" stroke="rgb(33,23,6)" stroke-width="1" opacity="1" d="M 156.5 393 L 167.5 393 L 169 394.5 Q 166.3 396.2 168 402.5 L 185.5 419 L 187 419 L 187 396.5 L 186 393 L 198.5 393 L 199 393.5 L 199 443.5 L 197.5 445 L 187.5 445 L 186 442.5 Q 188.5 441 187 435.5 L 184.5 432 L 168.5 418 L 168 442.5 Q 170.3 443.8 167.5 445 L 156.5 445 L 155 443.5 L 156 441.5 L 156 396.5 L 155 394.5 L 156.5 393 Z M 157 394 L 157 444 L 158 444 L 167 444 L 168 416 L 188 435 Q 190 441 187 443 L 189 444 L 198 444 L 197 442 L 197 397 L 198 396 L 198 394 L 187 394 L 188 397 L 188 421 L 167 404 L 167 394 L 157 394 Z " /><path fill="rgb(33,23,6)" stroke="rgb(33,23,6)" stroke-width="1" opacity="1" d="M 214 393 L 243.5 393 L 245 394.5 L 248 405 L 226 405 L 226 413.5 L 227.5 413 L 241.5 412 L 243 414.5 Q 240.8 415.8 242 420.5 L 239.5 425 L 238.5 424 L 230.5 424 Q 226.3 426.9 226 433 L 247.5 433 L 248.5 432 L 250 435.5 L 247 444 L 244.5 445 L 214 445 L 214 393 Z M 215 394 L 216 398 L 216 441 L 215 442 L 216 444 L 245 444 L 249 436 L 249 434 L 225 434 L 225 431 L 228 424 Q 232 422 240 423 L 241 413 L 232 413 L 225 415 L 225 405 L 227 403 L 244 403 L 245 404 L 247 404 L 244 396 L 243 394 L 215 394 Z " /><path fill="rgb(33,23,6)" stroke="rgb(33,23,6)" stroke-width="1" opacity="1" d="M 265.5 393 L 294.5 393 L 297 395.5 L 299 405 L 277 405 L 277 413.5 L 278.5 413 L 293 412 Q 294.3 420.5 290.5 425 L 281.5 424 Q 274.8 428.3 277 441.5 L 278 443.5 L 276.5 445 L 265.5 445 Q 262.8 443.8 265 442.5 L 265 395.5 L 264 394.5 L 265.5 393 Z M 266 394 L 266 444 L 267 444 L 276 444 L 276 430 L 278 426 L 282 423 L 291 423 L 292 413 Q 282 412 276 415 L 276 405 L 278 403 L 296 403 L 298 404 L 296 397 L 294 394 L 266 394 Z " /><path fill="rgb(33,23,6)" stroke="rgb(33,23,6)" stroke-width="1" opacity="1" d="M 314 393 L 343.5 393 L 345 394.5 L 348 405 L 327 405 L 327 413 Q 333.1 411 343 412 L 342 422.5 L 339.5 425 Q 337.7 422.2 331.5 424 L 328 426.5 L 327 433 L 347.5 433 L 350 432 Q 350.3 440.5 345.5 445 L 315.5 445 L 314 443.5 L 315 440.5 L 315 397.5 L 314 393 Z M 315 394 L 316 397 L 316 442 L 315 443 L 317 444 L 345 444 L 349 434 L 327 434 L 325 433 L 327 427 L 331 423 L 340 423 Q 342 421 341 416 Q 343 414 341 413 Q 332 412 327 415 L 325 414 L 325 404 L 328 403 L 344 403 L 347 404 L 344 396 L 343 394 L 315 394 Z " /><path fill="rgb(33,23,6)" stroke="rgb(33,23,6)" stroke-width="1" opacity="1" d="M 365.5 393 L 389.5 393 Q 397.5 395.5 402 401.5 Q 406.2 406.8 406 416.5 Q 403.8 425.8 398 431.5 L 405 434 Q 406.8 436.4 406 442.5 L 405 445 Q 393.1 445.7 388 438.5 L 385.5 435 Q 378.7 433.3 377 436.5 L 378 443.5 L 376.5 445 L 365.5 445 Q 362.7 443.8 365 442.5 L 365 395.5 L 364 394.5 L 365.5 393 Z M 366 394 L 366 444 L 367 444 L 376 444 L 376 436 L 378 434 L 386 434 L 387 435 Q 389 434 388 437 Q 392 442 400 444 L 404 444 L 404 435 L 396 432 L 404 420 Q 406 408 401 403 Q 397 396 389 394 L 366 394 Z " /><path fill="rgb(33,23,6)" stroke="rgb(33,23,6)" stroke-width="1" opacity="1" d="M 425.5 393 L 455.5 393 L 457 394.5 L 460 405 L 447.5 405 L 447 405.5 L 447 443.5 L 445.5 445 L 435.5 445 L 434 441.5 L 435 440.5 L 435 405 L 421.5 405 L 421 401.5 L 425.5 393 Z M 427 394 L 422 404 L 426 403 L 435 403 L 436 405 L 436 442 L 435 443 L 437 444 L 445 444 Q 447 443 445 442 L 445 405 L 447 403 Q 455 402 459 404 L 456 396 L 455 394 L 427 394 Z " /><path fill="rgb(33,23,6)" stroke="rgb(33,23,6)" stroke-width="1" opacity="1" d="M 475 393 L 487.5 393 L 488 395.5 L 487 396.5 L 487 425.5 L 492.5 433 L 498.5 434 L 504 430.5 L 506 427.5 L 506 395.5 Q 503.7 394.3 506.5 393 L 517.5 393 L 519 394.5 L 518 396.5 L 518 428.5 Q 515.5 437.5 508.5 442 Q 503 447 490.5 445 Q 483.1 442.4 479 436.5 L 475 425.5 L 475 393 Z M 476 394 L 477 398 L 477 430 L 479 435 Q 483 442 492 444 Q 504 446 510 440 Q 515 435 517 427 L 517 395 L 517 394 L 507 394 L 507 428 L 506 430 L 499 435 Q 493 436 491 433 L 486 427 L 486 396 L 487 395 L 476 394 Z " /><path fill="rgb(33,23,6)" stroke="rgb(33,23,6)" stroke-width="1" opacity="1" d="M 534.5 393 L 545.5 393 L 547 394.5 L 558.5 426 L 571 393 L 583.5 393 L 584 396.5 L 583 397.5 L 583 440.5 L 584 443.5 L 582.5 445 L 572.5 445 L 571 442.5 L 572 441.5 L 572 426.5 L 570 427.5 Q 568.4 437.9 563.5 445 L 554.5 445 L 552 442.5 L 546.5 426 L 546 445 L 534.5 445 L 533 443.5 L 534 441.5 L 534 396.5 L 533 394.5 L 534.5 393 Z M 535 394 L 535 396 L 535 442 L 534 443 L 536 444 L 545 444 L 544 441 L 544 423 L 546 421 L 553 443 L 555 444 L 563 444 L 565 441 L 571 422 L 573 423 L 573 442 L 572 443 L 574 444 L 582 444 Q 584 443 582 442 L 582 397 L 583 396 L 583 394 L 573 394 L 570 398 L 563 420 L 559 429 L 546 396 L 545 394 L 535 394 Z " /><path fill="rgb(33,23,6)" stroke="rgb(33,23,6)" stroke-width="1" opacity="1" d="M 377.5 403 Q 390.1 401.4 394 408.5 L 395 416.5 L 389.5 424 L 377.5 425 L 376 423.5 L 376 404.5 L 377.5 403 Z M 377 405 L 377 423 L 379 424 Q 387 425 391 422 L 394 416 L 392 408 L 389 405 L 377 405 Z " /><path fill="rgb(0,0,0)" stroke="rgb(0,0,0)" stroke-width="1" opacity="1" d="M 0 0 L 742 0 L 742 586 L 0 586 L 0 0 Z M 364 126 Q 351 128 343 135 Q 327 146 323 168 L 323 180 L 325 189 L 326 190 L 311 170 Q 292 145 255 138 L 105 138 Q 108 155 117 167 Q 128 182 151 186 Q 153 185 152 188 L 168 201 L 182 206 L 189 206 Q 200 224 227 227 L 230 232 L 246 243 L 260 247 L 267 247 L 276 257 L 272 261 L 274 262 L 283 262 L 288 267 L 273 277 L 263 287 L 265 288 L 281 283 Q 289 277 301 274 L 290 291 L 292 293 Q 305 290 314 283 L 315 283 L 296 308 L 291 318 L 291 321 L 302 314 L 322 293 L 325 291 Q 318 301 318 316 L 321 316 L 328 310 L 335 301 L 338 299 Q 331 313 328 332 L 328 342 L 330 342 Q 343 325 350 302 L 350 323 L 351 327 L 355 328 Q 361 319 365 305 L 366 334 L 370 348 Q 369 350 373 349 L 377 327 L 377 312 L 377 310 L 378 305 Q 380 317 386 326 Q 387 329 391 328 L 393 316 L 394 304 Q 399 324 410 339 L 415 342 L 412 321 L 405 301 L 406 299 L 408 303 L 423 316 L 425 315 Q 423 301 418 291 L 418 289 L 425 299 L 445 317 L 452 320 Q 445 302 433 289 L 428 282 L 444 291 L 452 293 L 452 290 L 442 276 Q 440 274 443 273 Q 458 283 478 288 Q 480 289 479 286 Q 469 275 457 268 L 455 266 L 460 262 L 469 262 L 470 261 L 467 256 L 471 253 L 472 251 L 477 247 L 489 246 L 495 244 L 508 236 L 515 227 L 531 224 Q 540 220 548 213 L 549 211 L 555 206 L 561 206 L 571 203 L 584 195 L 589 189 L 594 185 L 604 183 L 619 174 L 630 160 L 638 138 L 491 138 L 476 141 L 465 145 Q 451 151 441 160 Q 427 172 419 189 L 416 191 L 419 183 Q 421 170 418 162 Q 414 150 407 142 Q 399 133 388 128 L 380 126 L 364 126 Z M 157 393 L 155 395 L 156 397 L 156 442 L 155 444 L 157 445 L 168 445 Q 170 444 168 443 L 169 418 L 185 432 L 187 436 Q 189 441 186 443 L 188 445 L 198 445 L 199 444 L 199 394 L 199 393 L 186 393 L 187 397 L 187 419 L 186 419 L 168 403 Q 166 396 169 395 L 168 393 L 157 393 Z M 214 393 L 214 445 L 245 445 L 247 444 L 250 436 L 249 432 L 248 433 L 226 433 Q 226 427 231 424 L 239 424 L 240 425 L 242 421 Q 241 416 243 415 L 242 412 L 228 413 L 226 414 L 226 405 L 248 405 L 245 395 L 244 393 L 214 393 Z M 266 393 L 264 395 L 265 396 L 265 443 Q 263 444 266 445 L 277 445 L 278 444 L 277 442 Q 275 428 282 424 L 291 425 Q 294 421 293 412 L 279 413 L 277 414 L 277 405 L 299 405 L 297 396 L 295 393 L 266 393 Z M 314 393 L 315 398 L 315 441 L 314 444 L 316 445 L 346 445 Q 350 441 350 432 L 348 433 L 327 433 L 328 427 L 332 424 Q 338 422 340 425 L 342 423 L 343 412 Q 333 411 327 413 L 327 405 L 348 405 L 345 395 L 344 393 L 314 393 Z M 366 393 L 364 395 L 365 396 L 365 443 Q 363 444 366 445 L 377 445 L 378 444 L 377 437 Q 379 433 386 435 L 388 439 Q 393 446 405 445 L 406 443 Q 407 436 405 434 L 398 432 Q 404 426 406 417 Q 406 407 402 402 Q 398 396 390 393 L 366 393 Z M 426 393 L 421 402 L 422 405 L 435 405 L 435 441 L 434 442 L 436 445 L 446 445 L 447 444 L 447 406 L 448 405 L 460 405 L 457 395 L 456 393 L 426 393 Z M 475 393 L 475 426 L 479 437 Q 483 442 491 445 Q 503 447 509 442 Q 516 438 518 429 L 518 397 L 519 395 L 518 393 L 507 393 Q 504 394 506 396 L 506 428 L 504 431 L 499 434 L 493 433 L 487 426 L 487 397 L 488 396 L 488 393 L 475 393 Z M 535 393 L 533 395 L 534 397 L 534 442 L 533 444 L 535 445 L 546 445 L 547 426 L 552 443 L 555 445 L 564 445 Q 568 438 570 428 L 572 427 L 572 442 L 571 443 L 573 445 L 583 445 L 584 444 L 583 441 L 583 398 L 584 397 L 584 393 L 571 393 L 559 426 L 547 395 L 546 393 L 535 393 Z " /><path fill="rgb(0,0,0)" stroke="rgb(0,0,0)" stroke-width="1" opacity="1" d="M 363.5 134 Q 377.2 132.3 385.5 136 Q 397.1 140.9 404 150.5 L 411 166.5 L 411 180.5 L 409 188.5 L 403 200.5 L 392 216 L 395.5 216 L 407.5 209 L 424 194.5 L 442.5 169 Q 458.6 152.6 485.5 147 Q 491.8 148.8 493.5 146 L 626.5 146 L 626 147.5 L 624 154.5 L 614.5 167 L 601.5 175 L 587.5 178 L 586 179.5 L 575.5 191 L 568.5 195 L 558.5 198 L 550.5 198 L 547 200.5 L 537.5 211 L 522.5 218 L 512.5 219 L 509 222.5 L 502.5 230 L 484.5 239 L 471.5 240 Q 450.3 265.3 416.5 278 L 385.5 285 L 357.5 285 L 332.5 280 L 308.5 270 Q 286.4 258.1 270.5 240 L 258.5 239 L 251.5 237 Q 239.3 231.8 232 221.5 L 230.5 219 L 224.5 219 L 213.5 216 Q 202.5 211.5 196 202.5 L 193.5 199 Q 190 196.5 182.5 198 L 176.5 196 Q 164.9 191.6 158 182.5 L 154.5 178 Q 132.8 175.7 123 161.5 L 115 146.5 L 253.5 146 L 267.5 149 L 279.5 154 Q 294.4 162.1 305 174.5 Q 313.3 190.2 325.5 202 Q 335.8 211 349 216 L 348 211.5 Q 338.1 201.9 333 187.5 L 331 178.5 L 331 168.5 Q 334 150.5 346.5 142 Q 353.3 136.3 363.5 134 Z M 364 137 L 348 145 Q 337 154 334 170 L 334 178 L 337 189 Q 343 202 352 212 L 355 220 L 344 217 L 327 207 Q 312 195 303 178 Q 291 163 273 155 L 261 151 L 247 150 L 246 149 L 124 149 L 122 151 Q 121 157 125 159 Q 135 174 158 175 L 163 184 Q 169 191 180 194 L 196 196 L 201 204 L 217 214 L 226 216 L 233 216 L 237 223 L 251 233 L 261 236 L 272 236 Q 290 257 317 270 L 343 279 L 354 280 L 355 281 L 370 281 L 371 282 L 373 281 L 388 281 L 395 279 L 400 279 L 417 274 Q 442 264 461 247 L 469 239 L 469 237 L 472 236 L 487 235 L 499 229 Q 506 224 509 216 Q 527 216 537 208 L 545 198 L 547 196 L 559 195 L 566 193 L 576 187 L 584 177 L 586 175 L 601 172 L 611 166 Q 618 161 621 152 L 620 149 L 497 149 L 496 150 L 488 150 Q 464 155 449 168 L 440 177 L 425 199 Q 411 214 388 220 L 388 217 L 391 211 Q 400 201 406 188 L 408 180 Q 409 160 400 151 Q 390 135 364 137 Z " /><path fill="rgb(0,0,0)" stroke="rgb(0,0,0)" stroke-width="1" opacity="1" d="M 371.5 142 L 381.5 144 Q 389.9 147.1 395 153.5 L 402 166.5 L 402 181.5 L 400 180.5 L 400 176.5 L 393 164 L 381.5 157 L 374.5 155 L 368.5 155 L 354.5 160 L 347 167.5 Q 342 173 341.5 183 Q 338.2 177.8 340 167.5 Q 343.7 154.7 353.5 148 L 363.5 143 Q 369.8 144.8 371.5 142 Z " /><path fill="rgb(0,0,0)" stroke="rgb(0,0,0)" stroke-width="1" opacity="1" d="M 129.5 154 L 140.5 154 L 141.5 155 L 240 155 L 241 169 L 150.5 169 Q 136.9 166.1 130 156.5 L 129.5 154 Z " /><path fill="rgb(0,0,0)" stroke="rgb(0,0,0)" stroke-width="1" opacity="1" d="M 601.5 154 L 612.5 154 L 613 155.5 Q 606.1 166.1 591.5 169 L 501.5 169 L 502 167.5 Q 501.1 159.1 503 155 L 600.5 155 L 601.5 154 Z " /><path fill="rgb(0,0,0)" stroke="rgb(0,0,0)" stroke-width="1" opacity="1" d="M 245 155 L 248 155.5 L 245.5 159 L 245 155 Z " /><path fill="rgb(0,0,0)" stroke="rgb(0,0,0)" stroke-width="1" opacity="1" d="M 495.5 155 L 497 155.5 L 497 162.5 L 496 162.5 Q 496.5 156.5 495.5 155 Z " /><path fill="rgb(0,0,0)" stroke="rgb(0,0,0)" stroke-width="1" opacity="1" d="M 259.5 157 L 262 157.5 L 259.5 158 L 259.5 157 Z " /><path fill="rgb(0,0,0)" stroke="rgb(0,0,0)" stroke-width="1" opacity="1" d="M 480.5 157 L 483 157.5 L 477.5 159 L 477.5 158 L 480.5 157 Z " /><path fill="rgb(0,0,0)" stroke="rgb(0,0,0)" stroke-width="1" opacity="1" d="M 474.5 159 L 476 159.5 Q 457.3 165.8 446 179.5 Q 437.4 194.9 425.5 207 L 419.5 212 L 433 197.5 L 442 182.5 L 454.5 170 Q 462.9 162.9 474.5 159 Z " /><path fill="rgb(0,0,0)" stroke="rgb(0,0,0)" stroke-width="1" opacity="1" d="M 246.5 160 L 251 185.5 L 257 201.5 Q 268 225.5 286.5 242 Q 302.5 257 324.5 266 L 340.5 271 L 364.5 275 L 367 274 L 367 229.5 L 365.5 229 L 354 226.5 Q 359.4 227.4 361 224.5 L 361.5 221 L 368 226.5 L 368 275.5 L 367.5 276 L 355.5 276 Q 305.5 267 278 235.5 Q 263.2 219.3 254 197.5 L 248 178.5 L 246 167.5 L 246.5 160 Z " /><path fill="rgb(0,0,0)" stroke="rgb(0,0,0)" stroke-width="1" opacity="1" d="M 269.5 160 L 273 161.5 L 271.5 162 L 269.5 160 Z " /><path fill="rgb(0,0,0)" stroke="rgb(0,0,0)" stroke-width="1" opacity="1" d="M 252 162 L 266.5 165 Q 279.6 170.4 289 179.5 L 304 200.5 L 314.5 212 Q 324.6 220.9 337.5 227 Q 347.2 231.8 360.5 233 L 362 234.5 L 362 268.5 Q 361.8 269.8 355.5 269 Q 306 260 280 227.5 Q 269.3 215.2 262 199.5 L 255 179.5 L 252 162 Z M 258 168 L 259 177 L 262 179 L 266 180 L 272 178 L 274 175 Q 268 168 258 168 Z M 276 176 L 272 178 L 271 181 L 279 187 L 283 188 L 285 187 Q 288 188 287 185 Q 283 178 276 176 Z M 262 181 L 261 184 L 264 193 L 267 195 L 273 193 L 277 188 L 269 181 L 262 181 Z M 280 189 L 271 196 L 272 198 L 280 203 L 287 203 L 294 198 L 295 196 L 287 189 L 280 189 Z M 269 197 L 267 199 L 271 206 Q 270 209 275 207 Q 278 206 277 202 L 269 197 Z M 296 198 L 291 202 Q 288 201 289 205 L 298 211 Q 303 212 305 210 L 300 202 L 296 198 Z M 282 204 L 274 209 L 274 212 L 278 218 L 281 219 Q 288 220 291 216 Q 295 216 294 211 L 288 205 L 282 204 Z M 299 212 L 292 216 Q 289 217 289 221 L 299 227 Q 304 228 307 225 L 312 218 L 303 212 L 299 212 Z M 284 220 L 282 222 L 287 229 L 291 231 L 295 228 Q 292 221 284 220 Z M 316 220 L 308 226 Q 305 225 306 228 Q 309 233 317 235 L 323 234 L 328 228 L 320 221 L 316 220 Z M 298 228 L 294 230 L 292 233 L 303 242 L 308 240 L 312 235 L 304 228 L 298 228 Z M 331 229 L 323 236 L 332 242 Q 341 244 344 239 Q 347 238 346 234 L 343 234 L 331 229 Z M 315 236 L 309 240 Q 306 240 306 245 L 315 250 L 324 249 L 329 243 L 321 236 L 315 236 Z M 350 236 L 346 238 L 341 244 L 349 250 L 356 250 L 357 249 L 357 237 L 350 236 Z M 333 244 L 323 252 L 332 258 L 339 258 L 346 253 L 347 251 L 341 245 L 333 244 Z M 350 252 L 346 254 L 341 260 L 345 262 L 355 264 L 357 264 L 357 254 Q 356 251 350 252 Z " /><path fill="rgb(0,0,0)" stroke="rgb(0,0,0)" stroke-width="1" opacity="1" d="M 486.5 162 Q 491.8 160.3 490 165.5 Q 480.7 216.7 446.5 243 Q 433.3 253.8 416.5 261 L 397.5 267 L 381 269 L 381 233.5 Q 381 232.5 385.5 233 Q 418.3 225.8 436 203.5 L 448 185.5 L 458.5 175 Q 469.6 165.6 486.5 162 Z M 482 168 L 471 173 Q 468 172 469 176 L 473 179 L 477 180 L 481 179 L 484 175 L 484 168 L 482 168 Z M 466 176 L 460 180 L 455 186 L 459 188 L 466 186 L 471 180 Q 471 175 466 176 Z M 474 181 L 466 186 L 465 189 L 472 194 L 477 195 Q 481 191 481 183 Q 479 180 474 181 Z M 456 189 L 450 194 Q 447 193 448 197 L 457 203 Q 465 204 468 200 L 471 196 L 464 189 L 456 189 Z M 473 197 L 465 204 L 466 206 L 471 207 L 475 200 Q 476 196 473 197 Z M 446 198 L 438 208 L 440 211 L 446 211 L 453 206 L 454 204 L 448 198 L 446 198 Z M 458 204 L 450 210 Q 447 209 448 213 L 455 218 L 463 219 L 469 210 L 462 204 L 458 204 Z M 441 212 L 434 216 Q 431 217 431 221 L 441 227 Q 450 226 454 220 Q 450 213 441 212 Z M 426 220 L 416 226 L 414 229 Q 417 233 424 235 Q 431 235 434 231 Q 436 231 436 227 L 430 221 L 426 220 Z M 458 220 L 450 226 Q 447 225 448 229 L 453 231 L 460 223 Q 461 219 458 220 Z M 440 228 L 436 230 L 431 235 L 431 237 L 439 242 L 441 242 L 446 238 L 450 234 L 450 232 Q 447 227 440 228 Z M 410 229 L 396 236 L 404 242 Q 412 244 415 240 L 419 235 L 413 229 L 410 229 Z M 390 236 L 385 239 L 385 249 L 387 250 Q 395 251 399 247 L 402 242 L 396 237 L 390 236 Z M 423 236 L 415 241 L 413 244 L 422 250 L 428 250 L 435 246 L 437 242 L 428 236 L 423 236 Z M 405 244 L 400 247 L 396 252 L 404 258 Q 412 259 416 255 L 419 251 L 411 244 L 405 244 Z M 387 252 L 385 254 L 385 263 L 387 264 L 398 262 L 401 260 Q 403 261 402 259 L 394 252 L 387 252 Z " /><path fill="rgb(0,0,0)" stroke="rgb(0,0,0)" stroke-width="1" opacity="1" d="M 276.5 163 Q 287.9 168.6 296 177.5 L 311 199.5 L 321 209.5 L 310 199.5 Q 301.1 181.9 286.5 170 L 277.5 165 L 276.5 163 Z " /><path fill="rgb(0,0,0)" stroke="rgb(0,0,0)" stroke-width="1" opacity="1" d="M 495.5 164 L 496 170.5 Q 485.6 220.1 452.5 247 Q 437.3 259.8 417.5 268 L 393.5 275 L 374 276 L 374 226.5 L 376.5 224 L 381.5 220 Q 380.9 224.6 383.5 226 L 388 226.5 L 378.5 228 L 375 230.5 L 375 272.5 L 377.5 275 Q 404.5 272.5 424.5 263 Q 449.2 251.2 466 231.5 Q 489.4 206.4 495.5 164 Z " /><path fill="rgb(0,0,0)" stroke="rgb(0,0,0)" stroke-width="1" opacity="1" d="M 164.5 175 L 241.5 175 L 242 176.5 L 246 189.5 L 186.5 190 Q 172 187.5 165 177.5 L 164.5 175 Z " /><path fill="rgb(0,0,0)" stroke="rgb(0,0,0)" stroke-width="1" opacity="1" d="M 500 175 L 579 175.5 Q 571.6 187.1 555.5 190 L 497 190 L 500 175 Z " /><path fill="rgb(0,0,0)" stroke="rgb(0,0,0)" stroke-width="1" opacity="1" d="M 348.5 177 Q 349 186 353 191.5 L 366.5 207 Q 367.9 209.6 372.5 209 L 386 196.5 L 392 186.5 L 393.5 177 Q 396.9 180.6 395 189.5 Q 388.2 209.7 372.5 221 Q 363.2 218.3 359 210.5 L 350 197.5 L 347 187.5 L 347 181.5 L 348.5 177 Z " /><path fill="rgb(0,0,0)" stroke="rgb(0,0,0)" stroke-width="1" opacity="1" d="M 203 196 L 247.5 196 L 249 197.5 L 254 209.5 L 222.5 210 Q 209.8 206.7 203 197.5 L 203 196 Z " /><path fill="rgb(0,0,0)" stroke="rgb(0,0,0)" stroke-width="1" opacity="1" d="M 494 196 L 540 196.5 Q 534.2 205.2 523.5 209 L 519.5 210 L 488.5 210 L 489 208.5 L 494 196 Z " /><path fill="rgb(0,0,0)" stroke="rgb(0,0,0)" stroke-width="1" opacity="1" d="M 323.5 211 L 324.5 213 L 323.5 211 Z " /><path fill="rgb(0,0,0)" stroke="rgb(0,0,0)" stroke-width="1" opacity="1" d="M 417.5 212 L 415.5 215 L 417.5 212 Z " /><path fill="rgb(0,0,0)" stroke="rgb(0,0,0)" stroke-width="1" opacity="1" d="M 327.5 214 L 328.5 216 L 327.5 214 Z " /><path fill="rgb(0,0,0)" stroke="rgb(0,0,0)" stroke-width="1" opacity="1" d="M 413.5 215 L 412.5 217 L 410.5 218 L 411.5 216 L 413.5 215 Z " /><path fill="rgb(0,0,0)" stroke="rgb(0,0,0)" stroke-width="1" opacity="1" d="M 239.5 216 L 257.5 216 L 258 217.5 L 267 231 Q 246.5 229.8 239.5 216 Z " /><path fill="rgb(0,0,0)" stroke="rgb(0,0,0)" stroke-width="1" opacity="1" d="M 485.5 216 L 503 216.5 L 496.5 224 Q 489 230.5 475.5 231 L 477 228.5 L 485.5 216 Z " /><path fill="rgb(0,0,0)" stroke="rgb(0,0,0)" stroke-width="1" opacity="1" d="M 332.5 217 L 341 221.5 L 339.5 222 L 333.5 219 L 332.5 217 Z " /><path fill="rgb(0,0,0)" stroke="rgb(0,0,0)" stroke-width="1" opacity="1" d="M 401.5 221 L 403 221.5 L 399.5 223 L 399.5 222 L 401.5 221 Z " /><path fill="rgb(0,0,0)" stroke="rgb(0,0,0)" stroke-width="1" opacity="1" d="M 350.5 225 L 353 225.5 L 350.5 226 L 350.5 225 Z " /><path fill="rgb(0,0,0)" stroke="rgb(0,0,0)" stroke-width="1" opacity="1" d="M 389.5 225 L 392 225.5 L 389.5 226 L 389.5 225 Z " /><path fill="rgb(0,0,0)" stroke="rgb(0,0,0)" stroke-width="1" opacity="1" d="M 377 405 L 388.5 405 L 392 407.5 L 394 415.5 L 390.5 422 Q 386.5 425 378.5 424 L 377 422.5 L 377 405 Z " /><path fill="rgb(181,130,34)" stroke="rgb(181,130,34)" stroke-width="1" opacity="1" d="M 364.5 127 L 377.5 127 L 386.5 129 Q 400.6 134.4 409 145.5 L 417 162.5 Q 419.5 170 418 181.5 L 414 194 L 417 192.5 L 432 170.5 L 443.5 159 Q 453.7 150.2 467.5 145 L 480.5 141 L 491.5 140 L 492.5 139 L 637 139 L 630 157.5 Q 624.4 167.8 615.5 175 L 605.5 181 L 590 185 L 590 186.5 L 580.5 196 L 567.5 203 L 551 206 L 543.5 215 L 532.5 222 L 522.5 225 L 517.5 225 L 511 230.5 L 508.5 234 L 491.5 244 L 483.5 246 L 475.5 246 L 465 256.5 L 469 259 L 468.5 261 L 459.5 261 L 453 265 Q 451.9 267.7 454.5 267 L 478 285 L 477.5 287 Q 457.8 281.7 442.5 272 L 440 275.5 Q 447.7 282.1 451 292 L 443.5 290 L 428.5 281 L 426 281 Q 439.9 297.7 451 318.5 L 449.5 319 L 428 300.5 L 415.5 285 Q 412.7 286.2 415 287.5 Q 421.5 298.5 424 313.5 Q 421.7 317.2 419.5 312 L 411 304.5 L 400.5 289 L 400 291.5 L 408 310.5 L 412 325.5 L 414 340 Q 411.3 341.1 412 338.5 L 409 335.5 L 400 318.5 L 390.5 292 L 390 295.5 L 391 296.5 L 392 313.5 L 391 314.5 Q 391.7 322.5 390 327 Q 387.3 328.1 388 325.5 Q 378.9 313.1 376.5 294 L 376 325.5 L 375 326.5 L 373 344.5 L 371.5 347 L 369 342.5 L 367 331.5 L 366 301.5 L 367 296.5 L 365 297.5 Q 362.5 315.5 353.5 327 L 351 320.5 L 351 300.5 Q 353.5 299 352 293.5 L 351 293.5 Q 344.3 320.8 329.5 340 L 329 333.5 L 333 315.5 L 338 300.5 L 343 290.5 L 341.5 290 Q 333.2 304.7 320.5 315 Q 317.1 315.9 319 310.5 L 328 285.5 L 324 288.5 Q 315.5 302.5 302.5 312 L 292.5 319 L 293 317.5 L 298 306.5 L 317 281 L 313.5 281 Q 305.2 288.7 292.5 292 L 292 289.5 L 303 274.5 Q 302 272 297.5 273 Q 283.5 282 265.5 287 L 265 285.5 Q 275.4 274.4 289 266.5 L 287.5 264 L 283.5 261 L 274 261 L 277 255.5 L 266.5 246 L 258.5 246 L 242.5 240 L 229 228.5 L 227.5 226 L 212.5 223 L 195 212 L 189.5 205 L 182.5 205 L 172.5 202 Q 162.1 197.4 155 189.5 L 150.5 184 Q 130.4 181.1 120 168.5 L 113 158.5 L 106 139 L 252.5 139 L 267.5 142 L 284.5 149 Q 297.3 156.3 307 166.5 L 327.5 194 L 328 191.5 L 325 183.5 L 324 170.5 L 328 154.5 L 339.5 139 Q 348.7 129.7 364.5 127 Z M 363 133 Q 351 135 345 142 Q 333 151 330 169 L 330 180 L 333 191 Q 338 203 347 213 L 347 214 L 329 203 L 319 194 L 303 171 Q 286 151 255 145 L 114 146 Q 117 157 124 165 Q 134 177 155 179 L 161 188 L 176 197 L 183 199 L 194 200 L 195 203 Q 205 218 230 220 L 233 225 Q 240 234 252 238 L 258 240 L 271 241 Q 289 263 317 275 L 333 281 L 358 286 L 386 286 L 417 279 Q 451 266 473 241 L 485 240 L 502 232 L 511 222 L 513 220 L 519 220 L 530 217 L 540 211 L 546 204 L 550 200 Q 568 199 579 190 L 585 183 L 589 179 Q 604 178 613 170 Q 625 161 628 145 L 491 145 L 468 151 L 447 164 L 433 179 L 420 198 Q 410 208 396 214 L 394 215 L 406 198 L 412 182 L 412 166 Q 410 155 404 149 Q 396 139 384 134 Q 375 131 363 133 Z " /><path fill="rgb(181,130,34)" stroke="rgb(181,130,34)" stroke-width="1" opacity="1" d="M 364.5 138 Q 374.8 136.7 381.5 139 L 396 147 L 405 161.5 L 407 168.5 L 407 178.5 L 404 189.5 Q 398.1 202.1 389 211.5 L 386 220.5 L 390.5 221 Q 415.2 213.7 429 195.5 Q 437.3 178.3 451.5 167 Q 466 155 488.5 151 L 510.5 151 L 511.5 150 L 618.5 150 L 620 152.5 L 607.5 167 L 594.5 173 L 584 174 Q 581.3 182.2 573.5 187 L 561.5 193 L 546.5 194 L 545 195.5 Q 541.7 203.7 534.5 208 L 521.5 214 L 509.5 215 L 507 217.5 L 500.5 226 Q 491.1 236.1 470.5 235 Q 451.1 258.1 421.5 271 L 400.5 278 L 395.5 278 L 389.5 280 L 366.5 281 L 365.5 280 L 353.5 280 L 342.5 278 L 323.5 272 Q 296.6 260.9 278 241.5 L 272.5 235 L 261.5 235 L 253.5 233 Q 242.5 228.5 236 219.5 L 233.5 215 L 227.5 215 L 214.5 212 Q 205.8 207.8 200 200.5 L 195.5 194 L 184.5 194 L 177.5 192 Q 167.9 188.1 162 180.5 L 157.5 174 L 144.5 172 Q 133.7 167.8 127 159.5 L 123 151.5 L 124.5 150 L 230.5 150 L 231.5 151 L 253.5 151 L 269.5 155 Q 288.1 161.9 300 175.5 L 312 193.5 L 322.5 205 Q 332.4 213.6 345.5 219 L 356 221 L 354 212.5 L 339 190.5 L 336 181.5 Q 337.8 175.3 335 173.5 Q 337.8 171.8 336 165.5 L 340 155.5 L 349.5 145 L 364.5 138 Z M 368 141 Q 358 143 352 148 Q 342 155 339 168 Q 337 181 343 188 Q 342 173 350 166 L 362 158 L 370 156 L 379 157 L 389 162 Q 395 167 398 175 L 401 188 L 404 178 Q 405 163 398 156 Q 392 147 383 143 L 375 141 L 368 141 Z M 128 153 L 128 156 Q 135 166 150 170 L 242 170 L 241 154 L 128 153 Z M 550 153 L 549 154 L 503 154 L 501 156 Q 502 165 500 170 L 593 170 Q 602 168 608 163 L 615 155 L 614 153 L 550 153 Z M 246 154 L 244 156 Q 245 176 251 193 Q 260 216 275 234 Q 303 268 356 277 L 370 277 L 370 277 L 370 227 L 359 218 L 360 223 L 359 225 Q 337 222 325 211 Q 309 199 300 181 Q 289 167 272 159 L 254 154 L 246 154 Z M 490 154 Q 466 158 452 171 L 443 180 L 429 201 L 413 215 L 399 222 L 389 225 L 383 225 L 383 218 L 375 225 L 373 226 L 373 277 L 394 276 L 418 269 Q 440 260 457 245 Q 473 230 484 210 L 494 185 L 498 165 L 498 154 L 490 154 Z M 349 172 L 346 181 L 346 189 L 351 202 L 370 222 L 373 222 L 378 218 Q 390 208 396 191 Q 398 177 393 172 L 391 186 L 383 199 L 373 208 L 369 207 Q 355 198 350 181 Q 349 175 351 174 Q 352 171 349 172 Z M 163 174 L 163 177 Q 170 188 186 191 L 247 191 L 243 176 L 243 174 L 163 174 Z M 499 174 L 496 191 L 557 191 Q 566 189 573 184 L 580 176 L 580 174 L 499 174 Z M 201 194 L 201 197 L 214 208 L 223 211 Q 229 209 231 212 L 255 212 L 256 211 L 249 196 L 248 194 L 201 194 Z M 494 194 L 487 210 L 489 212 L 513 212 Q 514 209 521 211 L 535 204 L 542 196 L 541 194 L 494 194 Z M 238 215 L 240 220 Q 249 232 269 232 L 260 218 L 258 215 L 238 215 Z M 485 215 L 474 232 Q 487 232 496 226 L 505 216 L 485 215 Z " /><path fill="rgb(181,130,34)" stroke="rgb(181,130,34)" stroke-width="1" opacity="1" d="M 249.5 156 L 270.5 162 L 278.5 166 L 295 179.5 L 307 197.5 L 317.5 209 Q 328.5 219 343.5 225 L 353.5 228 L 364.5 229 L 366 230.5 L 366 272.5 L 364.5 274 Q 337.5 271.5 317.5 262 Q 293.1 249.4 276 229.5 Q 262.9 214.1 255 193.5 L 249 171.5 L 248 157.5 L 249.5 156 Z M 253 160 L 251 162 L 254 180 L 261 200 Q 270 219 284 234 L 310 254 L 326 262 L 338 266 L 357 270 Q 363 271 363 270 L 363 234 L 362 232 L 353 231 L 341 227 Q 327 222 318 213 Q 304 201 295 185 L 278 169 L 265 163 L 253 160 Z " /><path fill="rgb(181,130,34)" stroke="rgb(181,130,34)" stroke-width="1" opacity="1" d="M 492.5 156 L 495 157.5 L 493 174.5 L 485 199.5 Q 474.5 223.5 456.5 240 Q 442.6 253.1 424.5 262 L 402.5 270 L 377.5 274 L 376 272.5 L 376 231.5 L 378.5 229 L 383.5 229 L 395.5 226 L 409.5 220 Q 423.2 212.2 433 200.5 L 444 183.5 L 456.5 171 L 469.5 163 L 492.5 156 Z M 490 160 Q 469 164 456 176 Q 444 186 437 201 Q 418 227 380 232 L 379 235 L 379 269 L 381 270 L 398 268 L 422 260 Q 439 252 452 240 Q 482 214 491 167 Q 492 159 490 160 Z " /><path fill="rgb(181,130,34)" stroke="rgb(181,130,34)" stroke-width="1" opacity="1" d="M 260.5 169 L 272 174.5 L 269.5 178 Q 261.7 179.8 260 175.5 L 259 170.5 L 260.5 169 Z " /><path fill="rgb(181,130,34)" stroke="rgb(181,130,34)" stroke-width="1" opacity="1" d="M 481.5 169 Q 484.9 168.1 483 173.5 L 480.5 178 Q 472.5 179.5 470 175.5 Q 469.3 173.3 471.5 174 L 481.5 169 Z " /><path fill="rgb(181,130,34)" stroke="rgb(181,130,34)" stroke-width="1" opacity="1" d="M 275.5 177 L 286 184.5 Q 286.5 187.5 279.5 186 L 273 180.5 L 275.5 177 Z " /><path fill="rgb(181,130,34)" stroke="rgb(181,130,34)" stroke-width="1" opacity="1" d="M 465.5 177 L 470 180.5 L 462.5 186 L 457 186 L 462.5 179 L 465.5 177 Z " /><path fill="rgb(181,130,34)" stroke="rgb(181,130,34)" stroke-width="1" opacity="1" d="M 263 182 L 268.5 182 L 276 187 L 274.5 190 Q 271.4 193.7 266 194 L 263 182 Z " /><path fill="rgb(181,130,34)" stroke="rgb(181,130,34)" stroke-width="1" opacity="1" d="M 474.5 182 Q 479 181 480 183.5 L 475.5 194 Q 469.8 192.8 467 188.5 L 470.5 184 L 474.5 182 Z " /><path fill="rgb(181,130,34)" stroke="rgb(181,130,34)" stroke-width="1" opacity="1" d="M 279.5 190 L 286.5 190 L 293 195.5 L 290.5 199 Q 287.9 202.9 280.5 202 L 273 196.5 L 277.5 191 L 279.5 190 Z " /><path fill="rgb(181,130,34)" stroke="rgb(181,130,34)" stroke-width="1" opacity="1" d="M 456.5 190 L 462.5 190 L 470 195.5 L 462.5 202 L 456.5 202 L 449 195.5 L 456.5 190 Z " /><path fill="rgb(181,130,34)" stroke="rgb(181,130,34)" stroke-width="1" opacity="1" d="M 269 199 L 276 203.5 L 272.5 206 L 269 199 Z " /><path fill="rgb(181,130,34)" stroke="rgb(181,130,34)" stroke-width="1" opacity="1" d="M 295.5 199 L 298 200.5 L 304 208.5 Q 302.8 211.3 297.5 210 L 290 205 L 292.5 201 L 295.5 199 Z " /><path fill="rgb(181,130,34)" stroke="rgb(181,130,34)" stroke-width="1" opacity="1" d="M 446.5 199 L 452 203.5 L 448.5 208 Q 446.2 210.7 440.5 210 Q 437.7 208.7 440 207.5 L 446.5 199 Z " /><path fill="rgb(181,130,34)" stroke="rgb(181,130,34)" stroke-width="1" opacity="1" d="M 471.5 199 L 474 199.5 L 469.5 206 L 467 204.5 L 471.5 199 Z " /><path fill="rgb(181,130,34)" stroke="rgb(181,130,34)" stroke-width="1" opacity="1" d="M 282.5 205 Q 289.9 206.1 293 211.5 Q 290.3 218.3 280.5 218 L 275 209.5 L 278.5 206 L 282.5 205 Z " /><path fill="rgb(181,130,34)" stroke="rgb(181,130,34)" stroke-width="1" opacity="1" d="M 458.5 205 L 467 208 L 467 211.5 L 464 217 L 457.5 218 L 449 211.5 L 458.5 205 Z " /><path fill="rgb(181,130,34)" stroke="rgb(181,130,34)" stroke-width="1" opacity="1" d="M 299.5 213 L 304.5 214 L 311 219.5 L 304.5 225 L 298.5 226 L 290 219.5 Q 293 214.5 299.5 213 Z " /><path fill="rgb(181,130,34)" stroke="rgb(181,130,34)" stroke-width="1" opacity="1" d="M 441.5 213 L 446.5 214 L 452 218.5 L 450.5 222 Q 447.5 226 440.5 226 L 432 219.5 Q 435 214.5 441.5 213 Z " /><path fill="rgb(181,130,34)" stroke="rgb(181,130,34)" stroke-width="1" opacity="1" d="M 316.5 221 L 327 227 L 323.5 232 L 316.5 234 L 308 228.5 Q 307.5 224.5 310.5 224 L 316.5 221 Z " /><path fill="rgb(181,130,34)" stroke="rgb(181,130,34)" stroke-width="1" opacity="1" d="M 425.5 221 Q 432 222.5 435 227.5 Q 431.8 233.3 423.5 234 L 416 228.5 L 417.5 226 L 425.5 221 Z " /><path fill="rgb(181,130,34)" stroke="rgb(181,130,34)" stroke-width="1" opacity="1" d="M 284.5 222 L 287.5 222 L 293 226 L 290.5 230 Q 284.7 226.9 284.5 222 Z " /><path fill="rgb(181,130,34)" stroke="rgb(181,130,34)" stroke-width="1" opacity="1" d="M 455.5 222 L 459 222.5 L 454 229 L 451.5 230 Q 446 227 452.5 224 L 455.5 222 Z " /><path fill="rgb(181,130,34)" stroke="rgb(181,130,34)" stroke-width="1" opacity="1" d="M 297.5 229 L 302.5 229 L 310 234.5 L 305.5 240 L 302.5 241 L 294 233.5 L 295.5 230 L 297.5 229 Z " /><path fill="rgb(181,130,34)" stroke="rgb(181,130,34)" stroke-width="1" opacity="1" d="M 439.5 229 Q 446.4 228.3 449 231 L 442.5 239 L 438.5 241 L 432 235.5 Q 431.3 233.3 433.5 234 L 439.5 229 Z " /><path fill="rgb(181,130,34)" stroke="rgb(181,130,34)" stroke-width="1" opacity="1" d="M 330.5 230 L 344 235 L 340.5 240 L 331.5 241 L 325 235.5 L 326.5 233 L 330.5 230 Z " /><path fill="rgb(181,130,34)" stroke="rgb(181,130,34)" stroke-width="1" opacity="1" d="M 410.5 230 L 418 235.5 L 410.5 241 L 403.5 241 L 398 236.5 Q 397.2 233.9 400.5 235 L 410.5 230 Z " /><path fill="rgb(181,130,34)" stroke="rgb(181,130,34)" stroke-width="1" opacity="1" d="M 315.5 237 L 319.5 237 L 328 242 L 325.5 246 Q 323 250.5 314.5 249 L 307 243.5 L 315.5 237 Z " /><path fill="rgb(181,130,34)" stroke="rgb(181,130,34)" stroke-width="1" opacity="1" d="M 349.5 237 L 356 238 L 356 249 L 349.5 249 L 342 243.5 Q 341.3 241.3 343.5 242 L 349.5 237 Z " /><path fill="rgb(181,130,34)" stroke="rgb(181,130,34)" stroke-width="1" opacity="1" d="M 389.5 237 Q 397 237.5 400 242.5 L 395.5 248 L 387.5 249 L 386 247.5 L 386 238 L 389.5 237 Z " /><path fill="rgb(181,130,34)" stroke="rgb(181,130,34)" stroke-width="1" opacity="1" d="M 422.5 237 L 427.5 237 L 435 242.5 Q 436.1 245.8 433.5 245 L 427.5 249 L 421.5 249 L 415 243.5 L 417.5 240 L 422.5 237 Z " /><path fill="rgb(181,130,34)" stroke="rgb(181,130,34)" stroke-width="1" opacity="1" d="M 332.5 245 L 337.5 245 L 345 250.5 L 340.5 256 L 331.5 257 L 325 251.5 L 327.5 248 L 332.5 245 Z " /><path fill="rgb(181,130,34)" stroke="rgb(181,130,34)" stroke-width="1" opacity="1" d="M 404.5 245 L 410.5 245 L 418 251.5 L 410.5 257 L 404.5 257 L 397 251.5 Q 396.3 249.3 398.5 250 L 404.5 245 Z " /><path fill="rgb(181,130,34)" stroke="rgb(181,130,34)" stroke-width="1" opacity="1" d="M 349.5 253 L 356 253 L 356 263 L 344.5 261 L 342 258.5 L 349.5 253 Z " /><path fill="rgb(181,130,34)" stroke="rgb(181,130,34)" stroke-width="1" opacity="1" d="M 387.5 253 L 393.5 253 L 400 258.5 Q 400.8 260.8 398.5 260 L 387.5 263 Q 384.3 261.3 386 254.5 L 387.5 253 Z " /><path fill="rgb(181,130,34)" stroke="rgb(181,130,34)" stroke-width="1" opacity="1" d="M 157 394 L 167 394 L 167 403.5 L 188 421 L 188 396.5 L 187 394 L 197.5 394 L 198 395.5 L 197 396.5 L 197 441.5 L 198 444 L 188.5 444 L 187 442.5 Q 189.8 440.7 188 434.5 L 167.5 416 L 167 444 L 157.5 444 L 157 443.5 L 157 394 Z " /><path fill="rgb(181,130,34)" stroke="rgb(181,130,34)" stroke-width="1" opacity="1" d="M 215 394 L 242.5 394 L 244 395.5 L 247 403.5 L 244.5 404 L 243.5 403 L 226.5 403 L 225 404.5 L 225 415 L 231.5 413 L 241 413 L 240 423 Q 231.7 421.8 228 424 L 225 430.5 L 225 434 L 248.5 434 L 249 435.5 L 244.5 444 L 215.5 444 L 215 441.5 L 216 440.5 L 216 397.5 L 215 394 Z " /><path fill="rgb(181,130,34)" stroke="rgb(181,130,34)" stroke-width="1" opacity="1" d="M 266 394 L 293.5 394 L 296 396.5 L 298 404 L 295.5 403 L 277.5 403 L 276 404.5 L 276 415 Q 281.8 411.9 292 413 L 291 423 L 281.5 423 L 278 425.5 L 276 429.5 L 276 444 L 266.5 444 L 266 443.5 L 266 394 Z " /><path fill="rgb(181,130,34)" stroke="rgb(181,130,34)" stroke-width="1" opacity="1" d="M 315 394 L 342.5 394 L 344 395.5 L 347 404 L 343.5 403 L 327.5 403 L 325 404 L 325 413.5 L 326.5 415 Q 331.5 412 340.5 413 Q 343.3 414.3 341 415.5 Q 341.6 420.9 340 423 L 330.5 423 L 327 426.5 L 325 432.5 L 326.5 434 L 349 434 L 344.5 444 L 316.5 444 L 315 442.5 L 316 441.5 L 316 396.5 L 315 394 Z " /><path fill="rgb(181,130,34)" stroke="rgb(181,130,34)" stroke-width="1" opacity="1" d="M 366 394 L 388.5 394 Q 396.9 396.2 401 402.5 Q 405.8 407.7 404 419.5 L 396 431.5 L 404 435 L 404 444 L 399.5 444 Q 391.8 442.1 388 436.5 Q 388.8 434.3 386.5 435 L 385.5 434 L 377.5 434 L 376 435.5 L 376 444 L 366.5 444 L 366 443.5 L 366 394 Z M 378 403 L 376 405 L 376 424 L 378 425 L 390 424 L 395 417 L 394 409 Q 390 401 378 403 Z " /><path fill="rgb(181,130,34)" stroke="rgb(181,130,34)" stroke-width="1" opacity="1" d="M 426.5 394 L 454.5 394 L 456 395.5 L 459 404 Q 454.9 402.1 446.5 403 L 445 404.5 L 445 441.5 Q 447.3 442.8 444.5 444 L 436.5 444 L 435 442.5 L 436 441.5 L 436 404.5 L 434.5 403 L 425.5 403 L 422 404 L 426.5 394 Z " /><path fill="rgb(181,130,34)" stroke="rgb(181,130,34)" stroke-width="1" opacity="1" d="M 476 394 L 487 394.5 L 486 395.5 L 486 426.5 L 490.5 433 Q 492.8 435.7 498.5 435 L 506 429.5 L 507 427.5 L 507 394 L 516.5 394 L 517 394.5 L 517 426.5 Q 515.5 435.5 509.5 440 Q 504.2 445.7 491.5 444 Q 482.9 441.6 479 434.5 L 477 429.5 L 477 397.5 L 476 394 Z " /><path fill="rgb(181,130,34)" stroke="rgb(181,130,34)" stroke-width="1" opacity="1" d="M 534.5 394 L 544.5 394 L 546 395.5 L 558.5 429 L 563 419.5 L 570 397.5 L 572.5 394 L 582.5 394 L 583 395.5 L 582 396.5 L 582 441.5 Q 584.3 442.8 581.5 444 L 573.5 444 L 572 442.5 L 573 441.5 L 573 422.5 L 571 421.5 L 565 440.5 L 562.5 444 L 554.5 444 L 553 442.5 L 545.5 421 L 544 422.5 L 544 440.5 L 545 444 L 535.5 444 L 534 442.5 L 535 441.5 L 535 395.5 L 534.5 394 Z " /></svg>